name rise49.5252peak65.1548fall88.8305.mot
datacolumns 19
datarows 27
range 13.59827600000000 13.64161200000000
endheader
time	ground_force1_vx	ground_force1_vy	ground_force1_vz	ground_force1_px	ground_force1_py	ground_force1_pz	ground_force2_vx	ground_force2_vy	ground_force2_vz	ground_force2_px	ground_force2_py	ground_force2_pz	ground_torque1_x	ground_torque1_y	ground_torque1_z	ground_torque2_x	ground_torque2_y	ground_torque2_z	
13.59827600000000	-1.70122300000000	692.89265000000000	39.09491400000000	0.25064800000000	0.00000000000000	0.08242000000000	0.00000000000000	0.00000000000000	0.00000000000000	0.00000000000000	0.00000000000000	0.00000000000000	0.00000000000000	19.59879400000000	0.00000000000000	0.00000000000000	0.00000000000000	0.00000000000000	
13.59994400000000	-2.07532000000000	693.19107099999997	39.14966300000000	0.24997200000000	0.00000000000000	0.08241800000000	0.00000000000000	0.00000000000000	0.00000000000000	0.00000000000000	0.00000000000000	0.00000000000000	0.00000000000000	19.64556300000000	0.00000000000000	0.00000000000000	0.00000000000000	0.00000000000000	
13.60161100000000	-2.45523700000000	693.54781300000002	39.21240500000000	0.24932100000000	0.00000000000000	0.08241600000000	0.00000000000000	0.00000000000000	0.00000000000000	0.00000000000000	0.00000000000000	0.00000000000000	0.00000000000000	19.69944500000000	0.00000000000000	0.00000000000000	0.00000000000000	0.00000000000000	
13.60327600000000	-2.84142700000000	693.96188199999995	39.28266500000000	0.24869400000000	0.00000000000000	0.08241400000000	0.00000000000000	0.00000000000000	0.00000000000000	0.00000000000000	0.00000000000000	0.00000000000000	0.00000000000000	19.76014900000000	0.00000000000000	0.00000000000000	0.00000000000000	0.00000000000000	
13.60494000000000	-3.23432400000000	694.43226700000002	39.35997500000000	0.24808800000000	0.00000000000000	0.08241200000000	0.00000000000000	0.00000000000000	0.00000000000000	0.00000000000000	0.00000000000000	0.00000000000000	0.00000000000000	19.82738100000000	0.00000000000000	0.00000000000000	0.00000000000000	0.00000000000000	
13.60660700000000	-3.63434400000000	694.95794300000000	39.44388100000000	0.24750200000000	0.00000000000000	0.08241100000000	0.00000000000000	0.00000000000000	0.00000000000000	0.00000000000000	0.00000000000000	0.00000000000000	0.00000000000000	19.90085100000000	0.00000000000000	0.00000000000000	0.00000000000000	0.00000000000000	
13.60827300000000	-4.04188000000000	695.53787299999999	39.53393900000000	0.24693200000000	0.00000000000000	0.08240900000000	0.00000000000000	0.00000000000000	0.00000000000000	0.00000000000000	0.00000000000000	0.00000000000000	0.00000000000000	19.98026800000000	0.00000000000000	0.00000000000000	0.00000000000000	0.00000000000000	
13.60994800000000	-4.45730100000000	696.17101400000001	39.62972200000000	0.24637600000000	0.00000000000000	0.08240800000000	0.00000000000000	0.00000000000000	0.00000000000000	0.00000000000000	0.00000000000000	0.00000000000000	0.00000000000000	20.06534300000000	0.00000000000000	0.00000000000000	0.00000000000000	0.00000000000000	
13.61161200000000	-4.88095300000000	696.85631300000000	39.73081400000000	0.24583200000000	0.00000000000000	0.08240700000000	0.00000000000000	0.00000000000000	0.00000000000000	0.00000000000000	0.00000000000000	0.00000000000000	0.00000000000000	20.15579000000000	0.00000000000000	0.00000000000000	0.00000000000000	0.00000000000000	
13.61328100000000	-5.31315400000000	697.59271699999999	39.83681500000000	0.24529900000000	0.00000000000000	0.08240600000000	0.00000000000000	0.00000000000000	0.00000000000000	0.00000000000000	0.00000000000000	0.00000000000000	0.00000000000000	20.25132300000000	0.00000000000000	0.00000000000000	0.00000000000000	0.00000000000000	
13.61494800000000	-5.75419600000000	698.37916900000005	39.94734200000000	0.24477200000000	0.00000000000000	0.08240600000000	0.00000000000000	0.00000000000000	0.00000000000000	0.00000000000000	0.00000000000000	0.00000000000000	0.00000000000000	20.35166100000000	0.00000000000000	0.00000000000000	0.00000000000000	0.00000000000000	
13.61660800000000	-6.20434000000000	699.21461199999999	40.06202700000000	0.24425100000000	0.00000000000000	0.08240700000000	0.00000000000000	0.00000000000000	0.00000000000000	0.00000000000000	0.00000000000000	0.00000000000000	0.00000000000000	20.45652600000000	0.00000000000000	0.00000000000000	0.00000000000000	0.00000000000000	
13.61827600000000	-6.66381800000000	700.09798899999998	40.18051600000000	0.24373300000000	0.00000000000000	0.08240800000000	0.00000000000000	0.00000000000000	0.00000000000000	0.00000000000000	0.00000000000000	0.00000000000000	0.00000000000000	20.56564400000000	0.00000000000000	0.00000000000000	0.00000000000000	0.00000000000000	
13.61995000000000	-7.13283200000000	701.02824599999997	40.30247500000000	0.24321500000000	0.00000000000000	0.08241000000000	0.00000000000000	0.00000000000000	0.00000000000000	0.00000000000000	0.00000000000000	0.00000000000000	0.00000000000000	20.67874500000000	0.00000000000000	0.00000000000000	0.00000000000000	0.00000000000000	
13.62160700000000	-7.61155000000000	702.00432799999999	40.42758400000000	0.24269500000000	0.00000000000000	0.08241300000000	0.00000000000000	0.00000000000000	0.00000000000000	0.00000000000000	0.00000000000000	0.00000000000000	0.00000000000000	20.79556200000000	0.00000000000000	0.00000000000000	0.00000000000000	0.00000000000000	
13.62327700000000	-8.10010600000000	703.02518599999996	40.55554200000000	0.24217100000000	0.00000000000000	0.08241700000000	0.00000000000000	0.00000000000000	0.00000000000000	0.00000000000000	0.00000000000000	0.00000000000000	0.00000000000000	20.91583600000000	0.00000000000000	0.00000000000000	0.00000000000000	0.00000000000000	
13.62494900000000	-8.59860200000000	704.08977200000004	40.68606200000000	0.24164200000000	0.00000000000000	0.08242100000000	0.00000000000000	0.00000000000000	0.00000000000000	0.00000000000000	0.00000000000000	0.00000000000000	0.00000000000000	21.03931000000000	0.00000000000000	0.00000000000000	0.00000000000000	0.00000000000000	
13.62661100000000	-9.10710400000000	705.19703900000002	40.81887600000000	0.24110500000000	0.00000000000000	0.08242700000000	0.00000000000000	0.00000000000000	0.00000000000000	0.00000000000000	0.00000000000000	0.00000000000000	0.00000000000000	21.16573500000000	0.00000000000000	0.00000000000000	0.00000000000000	0.00000000000000	
13.62827900000000	-9.62564200000000	706.34594400000003	40.95373100000000	0.24055700000000	0.00000000000000	0.08243400000000	0.00000000000000	0.00000000000000	0.00000000000000	0.00000000000000	0.00000000000000	0.00000000000000	0.00000000000000	21.29486500000000	0.00000000000000	0.00000000000000	0.00000000000000	0.00000000000000	
13.62995800000000	-10.15420900000000	707.53544299999999	41.09039100000000	0.23999900000000	0.00000000000000	0.08244100000000	0.00000000000000	0.00000000000000	0.00000000000000	0.00000000000000	0.00000000000000	0.00000000000000	0.00000000000000	21.42646200000000	0.00000000000000	0.00000000000000	0.00000000000000	0.00000000000000	
13.63161300000000	-10.69276500000000	708.76449400000001	41.22863600000000	0.23942700000000	0.00000000000000	0.08245000000000	0.00000000000000	0.00000000000000	0.00000000000000	0.00000000000000	0.00000000000000	0.00000000000000	0.00000000000000	21.56029300000000	0.00000000000000	0.00000000000000	0.00000000000000	0.00000000000000	
13.63327800000000	-11.24122900000000	710.03205300000002	41.36826200000000	0.23884100000000	0.00000000000000	0.08246000000000	0.00000000000000	0.00000000000000	0.00000000000000	0.00000000000000	0.00000000000000	0.00000000000000	0.00000000000000	21.69613100000000	0.00000000000000	0.00000000000000	0.00000000000000	0.00000000000000	
13.63495200000000	-11.79948500000000	711.33707400000003	41.50908000000000	0.23824000000000	0.00000000000000	0.08247200000000	0.00000000000000	0.00000000000000	0.00000000000000	0.00000000000000	0.00000000000000	0.00000000000000	0.00000000000000	21.83375500000000	0.00000000000000	0.00000000000000	0.00000000000000	0.00000000000000	
13.63661400000000	-12.36738100000000	712.67850699999997	41.65091800000000	0.23762100000000	0.00000000000000	0.08248500000000	0.00000000000000	0.00000000000000	0.00000000000000	0.00000000000000	0.00000000000000	0.00000000000000	0.00000000000000	21.97295200000000	0.00000000000000	0.00000000000000	0.00000000000000	0.00000000000000	
13.63827400000000	-12.94472500000000	714.05529799999999	41.79361900000000	0.23698400000000	0.00000000000000	0.08249800000000	0.00000000000000	0.00000000000000	0.00000000000000	0.00000000000000	0.00000000000000	0.00000000000000	0.00000000000000	22.11351300000000	0.00000000000000	0.00000000000000	0.00000000000000	0.00000000000000	
13.63994700000000	-13.53129300000000	715.46638600000006	41.93703800000000	0.23632900000000	0.00000000000000	0.08251400000000	0.00000000000000	0.00000000000000	0.00000000000000	0.00000000000000	0.00000000000000	0.00000000000000	0.00000000000000	22.25523800000000	0.00000000000000	0.00000000000000	0.00000000000000	0.00000000000000	
13.64161200000000	-14.12681900000000	716.91070200000001	42.08105000000000	0.23565400000000	0.00000000000000	0.08253000000000	0.00000000000000	0.00000000000000	0.00000000000000	0.00000000000000	0.00000000000000	0.00000000000000	0.00000000000000	22.39793200000000	0.00000000000000	0.00000000000000	0.00000000000000	0.00000000000000	
